<?xml version="1.0" encoding="utf-8"?>
<!-- Svg Vector Icons : http://www.onlinewebfonts.com/icon -->
<!DOCTYPE svg PUBLIC "-//W3C//DTD SVG 1.1//EN" "http://www.w3.org/Graphics/SVG/1.1/DTD/svg11.dtd">
<svg version="1.1" xmlns="http://www.w3.org/2000/svg" xmlns:xlink="http://www.w3.org/1999/xlink" x="0px" y="0px" viewBox="0 0 1000 1000" enable-background="new 0 0 1000 1000" xml:space="preserve">
<metadata> Svg Vector Icons : http://www.onlinewebfonts.com/icon </metadata>
<g><g transform="translate(0.000000,512.000000) scale(0.100000,-0.100000)"><path d="M995.5,4987.3c-32.7-30.7-180.6-363.2-470.8-1058.8L100,2915.9l3.8-3808.6l5.8-3808.5l65.3-44.2l65.3-44.2l4773.2,3.8l4775.1,5.8l55.7,63.4l55.7,61.5v3768.2v3766.3l-432.4,1031.9c-307.5,734-445.8,1043.4-480.4,1076.1l-50,42.3H4990.4H1043.5L995.5,4987.3z M4373.6,4583.8c-3.8-25-42.3-355.5-84.5-736c-42.3-380.5-82.6-720.6-88.4-753.3l-9.6-63.4H2392.4c-1702.5,0-1796.7,1.9-1785.1,34.6c7.7,17.3,157.6,376.6,332.4,797.5l319,762.9H2819h1560.3L4373.6,4583.8z M5249.8,4599.2c0-15.4,48-443.9,105.7-951.2l105.7-922.4v-712.9v-711h-442h-442v739.8v737.9l96.1,841.7c51.9,463.1,99.9,878.1,105.7,924.3l11.5,80.7h230.6C5207.5,4626.1,5249.8,4620.3,5249.8,4599.2z M9054.5,3840.2c180.6-426.6,326.7-784,326.7-793.6c0-7.7-797.4-15.4-1773.6-15.4H5834l-80.7,736c-46.1,403.5-88.4,762.9-94.2,797.5l-9.6,61.5l1539.2-3.8l1541.1-5.8L9054.5,3840.2z M4154.5,1847.5c0-868.5,1.9-880.1,124.9-937.7c88.4-42.3,1358.6-46.1,1458.5-3.8c130.7,53.8,126.8,28.8,126.8,918.5v803.2h1815.9h1815.9V-879.2v-3506.9l-4500.3,3.8l-4502.2,5.8l-5.8,3503l-3.8,3501.1h1835.1h1835.1V1847.5z"/><path d="M3922,179.6c-26.9-13.5-165.3-138.3-307.5-274.8c-142.2-136.4-307.5-294-368.9-351.6c-63.4-59.6-117.2-126.8-124.9-161.4c-36.5-134.5,55.7-261.3,190.2-261.3c69.2,0,94.2,15.4,286.3,194.1l211.4,192.2v-1078c0-703.3,7.7-1091.5,19.2-1116.4c11.5-19.2,46.1-50,76.9-65.3c86.5-44.2,163.3-36.5,234.4,26.9l63.4,55.7l9.6,1087.6l9.6,1087.6l163.3-163.3c90.3-92.2,186.4-178.7,215.2-194.1c90.3-46.1,165.2-34.6,240.2,40.3c61.5,61.5,67.3,75,57.6,149.9c-9.6,75-34.6,103.8-372.8,432.4C4327.5-26,4139.1,148.8,4106.5,170C4039.2,212.2,3991.2,216.1,3922,179.6z"/><path d="M5956.9,191.1c-44.2-19.2-747.5-686-787.8-749.4c-90.3-138.3,5.8-311.3,174.9-311.3c65.3,0,123,44.2,344,257.5l138.3,134.5V-1546c0-789.8,5.8-1083.8,23.1-1120.3c26.9-61.5,107.6-105.7,190.2-105.7c42.3,0,78.8,19.2,124.9,65.3l65.3,65.3v1081.8v1083.8l169.1-165.3c197.9-196,244-228.7,317.1-228.7c155.7,0,257.5,169.1,180.6,299.8c-30.8,51.9-755.2,743.6-797.5,760.9c-17.3,7.7-50,13.4-71.1,13.4C6006.9,204.5,5974.2,198.8,5956.9,191.1z"/><path d="M3316.7-3164c-78.8-34.6-123-99.9-123-184.5c0-86.5,44.2-149.9,126.8-184.5c96.1-40.4,3301.3-40.4,3399.3,0c67.3,28.8,124.9,113.4,124.9,184.5s-57.6,155.6-124.9,184.5C6623.7-3125.5,3407-3125.5,3316.7-3164z"/></g></g>
</svg>